<svg width="16" height="16" viewBox="0 0 16 16" fill="none" xmlns="http://www.w3.org/2000/svg">
<path fill-rule="evenodd" clip-rule="evenodd" d="M3.33366 0.666016C1.8609 0.666016 0.666992 1.85992 0.666992 3.33268V12.666C0.666992 14.1387 1.8609 15.3327 3.33366 15.3327H12.667C14.1397 15.3327 15.3337 14.1387 15.3337 12.666V3.33268C15.3337 1.85992 14.1397 0.666016 12.667 0.666016H3.33366ZM12.667 1.99935H3.33366C2.59728 1.99935 2.00033 2.5963 2.00033 3.33268V12.666C2.00033 13.4024 2.59728 13.9993 3.33366 13.9993H12.667C13.4034 13.9993 14.0003 13.4024 14.0003 12.666V3.33268C14.0003 2.5963 13.4034 1.99935 12.667 1.99935ZM4.00033 8.04668L6.82873 10.8751L11.5428 6.1611L10.6 5.21828L6.82873 8.98955L4.94313 7.10388L4.00033 8.04668Z" fill="#171717"/>
</svg>
