<svg width="10" height="10" viewBox="0 0 10 10" fill="none" xmlns="http://www.w3.org/2000/svg">
<path fill-rule="evenodd" clip-rule="evenodd" d="M1.15077 0.206979C0.89042 -0.0533679 0.468307 -0.0533679 0.20796 0.206979C-0.052393 0.467325 -0.052393 0.889439 0.20796 1.14979L4.05779 4.99961L0.208 8.84941C-0.052353 9.10974 -0.052353 9.53187 0.208 9.79221C0.468347 10.0525 0.89046 10.0525 1.15081 9.79221L5.00059 5.94241L8.85039 9.79221C9.11073 10.0525 9.53286 10.0525 9.79319 9.79221C10.0535 9.53187 10.0535 9.10974 9.79319 8.84941L5.94339 4.99961L9.79319 1.14979C10.0536 0.889439 10.0536 0.467325 9.79319 0.206979C9.53286 -0.0533679 9.11079 -0.0533679 8.85039 0.206979L5.00059 4.05681L1.15077 0.206979Z" fill="#171717"/>
</svg>
