<svg width="18" height="17" viewBox="0 0 18 17" fill="none" xmlns="http://www.w3.org/2000/svg">
<path fill-rule="evenodd" clip-rule="evenodd" d="M7.874 3C7.4299 1.27477 5.86384 0 4 0C1.79086 0 0 1.79086 0 4C0 6.20914 1.79086 8 4 8C5.86384 8 7.4299 6.72523 7.874 5H16V3H7.874ZM6 4C6 5.10457 5.10457 6 4 6C2.89543 6 2 5.10457 2 4C2 2.89543 2.89543 2 4 2C5.10457 2 6 2.89543 6 4ZM10.126 14C10.5701 15.7252 12.1362 17 14 17C16.2091 17 18 15.2091 18 13C18 10.7909 16.2091 9 14 9C12.1362 9 10.5701 10.2748 10.126 12H2V14H10.126ZM16 13C16 14.1046 15.1046 15 14 15C12.8954 15 12 14.1046 12 13C12 11.8954 12.8954 11 14 11C15.1046 11 16 11.8954 16 13Z" fill="white"/>
</svg>
