<svg width="24" height="24" viewBox="0 0 24 24" fill="none" xmlns="http://www.w3.org/2000/svg">
<path fill-rule="evenodd" clip-rule="evenodd" d="M5.48178 3.79417C2.05438 7.39409 2.19424 13.0909 5.79417 16.5183L12.3124 22.7241L18.5183 16.2059C21.9457 12.606 21.8058 6.90918 18.2059 3.48178C14.6059 0.054384 8.90918 0.194244 5.48178 3.79417ZM12.243 19.8965L17.0698 14.8268C19.7355 12.0269 19.6267 7.59603 16.8268 4.93028C14.0268 2.26453 9.59603 2.37331 6.93028 5.17325C4.26452 7.97319 4.3733 12.404 7.17324 15.0698L12.243 19.8965ZM12.2721 14.2721C14.4813 14.2721 16.2721 12.4813 16.2721 10.2721C16.2721 8.06299 14.4813 6.27213 12.2721 6.27213C10.063 6.27213 8.27214 8.06299 8.27214 10.2721C8.27214 12.4813 10.063 14.2721 12.2721 14.2721ZM12.2721 12.2721C13.3767 12.2721 14.2721 11.3767 14.2721 10.2721C14.2721 9.16756 13.3767 8.27213 12.2721 8.27213C11.1676 8.27213 10.2721 9.16756 10.2721 10.2721C10.2721 11.3767 11.1676 12.2721 12.2721 12.2721Z" fill="#171717"/>
</svg>
