<svg width="37" height="24" viewBox="0 0 37 24" fill="none" xmlns="http://www.w3.org/2000/svg">
<g opacity="0.01">
<rect width="36.2455" height="23.9724" fill="white"/>
</g>
<rect x="13.3438" y="4.17676" width="9.56138" height="15.6166" fill="#FF5F00"/>
<path d="M14.3281 11.9865C14.3257 8.93956 15.7244 6.06076 18.1212 4.17955C14.0494 0.979569 8.20219 1.44567 4.68877 5.25031C1.17536 9.05494 1.17536 14.9207 4.68877 18.7254C8.20219 22.53 14.0494 22.9961 18.1212 19.7961C15.7237 17.9143 14.3249 15.0343 14.3281 11.9865Z" fill="#EB001B"/>
<path fill-rule="evenodd" clip-rule="evenodd" d="M33.2411 17.8211V18.1411H33.1804V17.8211H33.0508V17.7549H33.3791V17.8211H33.2411ZM33.8784 17.7549V18.1411H33.8094V17.8487L33.7018 18.0997H33.6273L33.5197 17.8487V18.1411H33.448V17.7549H33.5473L33.6632 18.0307L33.7791 17.7549H33.8784Z" fill="#F79E1B"/>
<path d="M34.1901 11.9864C34.19 15.7887 32.0189 19.2572 28.5988 20.9188C25.1788 22.5803 21.1102 22.1433 18.1211 19.7933C20.5168 17.9105 21.9157 15.0321 21.9157 11.985C21.9157 8.93794 20.5168 6.05953 18.1211 4.17672C21.1102 1.82668 25.1788 1.38965 28.5988 3.05124C32.0189 4.71282 34.19 8.18131 34.1901 11.9836V11.9864Z" fill="#F79E1B"/>
</svg>
