<svg width="12" height="12" viewBox="0 0 12 12" fill="none" xmlns="http://www.w3.org/2000/svg">
<path fill-rule="evenodd" clip-rule="evenodd" d="M6.00033 0.666992C5.63213 0.666992 5.33366 0.965472 5.33366 1.33366V5.33366H1.33366C0.965472 5.33366 0.666992 5.63213 0.666992 6.00033C0.666992 6.36853 0.965472 6.66699 1.33366 6.66699H5.33366V10.667C5.33366 11.0352 5.63213 11.3337 6.00033 11.3337C6.36853 11.3337 6.66699 11.0352 6.66699 10.667V6.66699H10.667C11.0352 6.66699 11.3337 6.36853 11.3337 6.00033C11.3337 5.63213 11.0352 5.33366 10.667 5.33366H6.66699V1.33366C6.66699 0.965472 6.36853 0.666992 6.00033 0.666992Z" fill="#8F92A1"/>
</svg>
