<svg width="27" height="27" viewBox="0 0 27 27" fill="none" xmlns="http://www.w3.org/2000/svg">
<path fill-rule="evenodd" clip-rule="evenodd" d="M5 4H19C19.5523 4 20 4.44771 20 5V19C20 19.5523 19.5523 20 19 20H5C4.44772 20 4 19.5523 4 19V5C4 4.44772 4.44771 4 5 4ZM2 5C2 3.34315 3.34315 2 5 2H19C20.6569 2 22 3.34315 22 5V19C22 20.6569 20.6569 22 19 22H5C3.34315 22 2 20.6569 2 19V5Z" fill="#171717"/>
<path fill-rule="evenodd" clip-rule="evenodd" d="M12 12C9.23858 12 7 9.31371 7 6H9C9 8.56606 10.6691 10 12 10C13.3309 10 15 8.56606 15 6H17C17 9.31371 14.7614 12 12 12Z" fill="#171717" fill-opacity="0.4"/>
<g clip-path="url(#clip0_2008_533)">
<path fill-rule="evenodd" clip-rule="evenodd" d="M19 27C23.4183 27 27 23.4183 27 19C27 14.5817 23.4183 11 19 11C14.5817 11 11 14.5817 11 19C11 23.4183 14.5817 27 19 27Z" fill="#171717"/>
</g>
<path d="M18.7731 22V17.568L17.8531 17.784V17L19.2051 16.4H19.8371V22H18.7731Z" fill="white"/>
<defs>
<clipPath id="clip0_2008_533">
<rect width="16" height="16" fill="white" transform="translate(11 11)"/>
</clipPath>
</defs>
</svg>
